<?xml version="1.0" encoding="iso-8859-1"?>
<!-- Uploaded to: SVG Repo, www.svgrepo.com, Generator: SVG Repo Mixer Tools -->
<svg height="800px" width="800px" version="1.1" id="Layer_1" xmlns="http://www.w3.org/2000/svg" xmlns:xlink="http://www.w3.org/1999/xlink" 
	 viewBox="0 0 512 512" xml:space="preserve">
<path style="fill:#95673F;" d="M331.889,66.438c-36.294,18.204-58.822,54.613-58.822,95.232v60.188
	c0,9.444-7.622,17.067-17.067,17.067c-9.445,0-17.067-7.623-17.067-17.067V161.67c0-40.618-22.528-77.028-58.822-95.232
	c-8.42-4.21-11.833-14.45-7.625-22.869c4.211-8.42,14.45-11.833,22.869-7.623C221.753,49.143,242.574,69.623,256,94.313
	c13.425-24.69,34.247-45.17,60.645-58.368c8.42-4.21,18.658-0.796,22.869,7.623C343.723,51.989,340.308,62.228,331.889,66.438z"/>
<path style="fill:#875334;" d="M331.889,66.438c-36.294,18.204-58.822,54.613-58.822,95.232v60.188
	c0,9.444-7.622,17.067-17.067,17.067V94.313c13.425-24.69,34.247-45.17,60.645-58.368c8.42-4.21,18.658-0.796,22.869,7.623
	C343.723,51.989,340.308,62.228,331.889,66.438z"/>
<path style="fill:#57A4FF;" d="M136.533,477.858c-56.461,0-102.4-45.939-102.4-102.4s45.939-102.4,102.4-102.4h85.333
	c9.428,0,17.067,7.639,17.067,17.067v85.333C238.933,431.92,192.994,477.858,136.533,477.858z"/>
<path style="fill:#2488FF;" d="M375.467,477.858c-56.461,0-102.4-45.939-102.4-102.4v-85.333c0-9.428,7.639-17.067,17.067-17.067
	h85.333c56.461,0,102.4,45.939,102.4,102.4S431.928,477.858,375.467,477.858z"/>
<path style="fill:#9BC9FF;" d="M426.667,307.191H290.133c-9.428,0-17.067-7.639-17.067-17.067
	c0-122.338,99.528-221.867,221.867-221.867c9.422,0,17.067,7.639,17.067,17.067v136.533
	C512,268.914,473.722,307.191,426.667,307.191z"/>
<path style="fill:#BDDBFF;" d="M221.867,307.191H85.333C38.278,307.191,0,268.913,0,221.858V85.325
	c0-9.428,7.639-17.067,17.067-17.067c122.338,0,221.867,99.528,221.867,221.867C238.933,299.553,231.294,307.191,221.867,307.191z"
	/>
<path style="fill:#6E6057;" d="M256,409.591c-28.233,0-51.2-22.967-51.2-51.2v-102.4c0-28.233,22.967-51.2,51.2-51.2
	s51.2,22.967,51.2,51.2v102.4C307.2,386.625,284.233,409.591,256,409.591z"/>
<circle style="fill:#D1DAE4;" cx="358.4" cy="358.389" r="17.067"/>
<circle style="fill:#C9D0D7;" cx="153.6" cy="358.389" r="17.067"/>
<g>
	<circle style="fill:#DADFE4;" cx="375.467" cy="221.856" r="17.067"/>
	<circle style="fill:#DADFE4;" cx="426.667" cy="170.656" r="17.067"/>
</g>
<g>
	<circle style="fill:#E6EBF0;" cx="136.533" cy="221.856" r="17.067"/>
	<circle style="fill:#E6EBF0;" cx="85.333" cy="170.656" r="17.067"/>
</g>
<path style="fill:#615349;" d="M307.2,358.391v-102.4c0-28.233-22.967-51.2-51.2-51.2v204.8
	C284.233,409.591,307.2,386.625,307.2,358.391z"/>
</svg>